<svg width="133" height="32" viewBox="0 0 133 32" fill="none" xmlns="http://www.w3.org/2000/svg">
<path d="M8.65625 18.8281L8.57812 22.1406L6.25 22.2344L5.65625 29.6406L2.35938 29.8125L2.375 22.4062L0.046875 22.5312L0.140625 18.8438L8.65625 18.8281ZM18.3594 29.6875L14.4531 29.875L14.4219 26.5781H12.625L12.5156 30H9.01562L9.3125 19.0156L13.0312 19.1875L12.7969 24.7969H14.5312L14.5469 18.9219L18.1094 19.0156L18.3594 29.6875ZM35.0469 22.125C35.0469 23.5104 34.8229 24.7135 34.375 25.7344C33.9375 26.7448 33.3229 27.5885 32.5312 28.2656C31.7396 28.9323 30.7917 29.4323 29.6875 29.7656C28.5938 30.0885 27.3906 30.25 26.0781 30.25C25.4844 30.25 24.875 30.1927 24.25 30.0781C23.625 29.9635 23.0052 29.8073 22.3906 29.6094C21.776 29.4115 21.1771 29.1771 20.5938 28.9062C20.0208 28.6354 19.4844 28.3438 18.9844 28.0312L19.5781 21.75C19.974 22.0208 20.4167 22.2812 20.9062 22.5312C21.3958 22.7708 21.901 22.9896 22.4219 23.1875C22.9531 23.375 23.4844 23.526 24.0156 23.6406C24.5573 23.7552 25.0781 23.8125 25.5781 23.8125C25.8698 23.8125 26.1667 23.7917 26.4688 23.75C26.7812 23.6979 27.0625 23.6094 27.3125 23.4844C27.5625 23.3594 27.7656 23.1823 27.9219 22.9531C28.0885 22.724 28.1719 22.4271 28.1719 22.0625C28.1719 21.8333 28.0677 21.6198 27.8594 21.4219C27.651 21.224 27.401 21.0573 27.1094 20.9219C26.8177 20.776 26.5156 20.6667 26.2031 20.5938C25.8906 20.5104 25.6302 20.4688 25.4219 20.4688C25.276 20.4688 25.099 20.4792 24.8906 20.5C24.6927 20.5104 24.4896 20.5312 24.2812 20.5625C24.0729 20.5938 23.8698 20.6406 23.6719 20.7031C23.4844 20.7552 23.3385 20.8229 23.2344 20.9062L23.3281 16.4375C23.5052 16.4583 23.6719 16.474 23.8281 16.4844C23.9844 16.4948 24.151 16.5 24.3281 16.5C24.6927 16.5 25.0885 16.4688 25.5156 16.4062C25.9427 16.3333 26.3385 16.2135 26.7031 16.0469C27.0677 15.8698 27.3698 15.6302 27.6094 15.3281C27.8594 15.026 27.9844 14.6354 27.9844 14.1562C27.9844 13.8125 27.8906 13.5365 27.7031 13.3281C27.5156 13.1094 27.2812 12.9427 27 12.8281C26.7292 12.7135 26.4323 12.6354 26.1094 12.5938C25.7865 12.5521 25.4948 12.5312 25.2344 12.5312C24.3906 12.5312 23.5573 12.6771 22.7344 12.9688C21.9219 13.2604 21.2031 13.6875 20.5781 14.25L19.2656 8.5625C20.224 7.78125 21.3125 7.1875 22.5312 6.78125C23.7604 6.36458 24.9948 6.15625 26.2344 6.15625C27.3698 6.15625 28.4531 6.32292 29.4844 6.65625C30.526 6.97917 31.4427 7.46354 32.2344 8.10938C33.026 8.74479 33.6562 9.53125 34.125 10.4688C34.5938 11.4062 34.8281 12.4896 34.8281 13.7188C34.8281 14.0729 34.776 14.4323 34.6719 14.7969C34.5677 15.1615 34.4271 15.5156 34.25 15.8594C34.0729 16.2031 33.8646 16.526 33.625 16.8281C33.3854 17.1198 33.1302 17.375 32.8594 17.5938C33.2969 17.7917 33.6562 18.0573 33.9375 18.3906C34.2188 18.724 34.4427 19.0938 34.6094 19.5C34.776 19.9062 34.8906 20.3385 34.9531 20.7969C35.0156 21.2448 35.0469 21.6875 35.0469 22.125ZM45.1641 22.4688C45.1641 22.875 45.1276 23.2448 45.0547 23.5781C44.987 23.9062 44.8776 24.2083 44.7266 24.4844C44.5755 24.7604 44.3802 25.0156 44.1406 25.25C43.901 25.4844 43.612 25.7083 43.2734 25.9219L45.1328 29.2344L41.6172 29.9219L40.4141 26.5938L39.4453 26.625L39.3047 29.875H35.9453C35.9714 28.6875 35.9948 27.5052 36.0156 26.3281C36.0417 25.151 36.0703 23.9688 36.1016 22.7812C36.112 22.1823 36.1224 21.5885 36.1328 21C36.1432 20.4115 36.1641 19.8177 36.1953 19.2188C36.5599 19.0833 36.9193 18.9714 37.2734 18.8828C37.6276 18.7943 37.9818 18.7266 38.3359 18.6797C38.6953 18.6276 39.0573 18.5938 39.4219 18.5781C39.7917 18.5573 40.1693 18.5469 40.5547 18.5469C41.1484 18.5469 41.7214 18.6302 42.2734 18.7969C42.8307 18.9583 43.3229 19.2031 43.75 19.5312C44.1771 19.8594 44.5182 20.2682 44.7734 20.7578C45.0339 21.2474 45.1641 21.8177 45.1641 22.4688ZM41.6641 22.7188C41.6641 22.5 41.6328 22.2995 41.5703 22.1172C41.513 21.9349 41.4245 21.7786 41.3047 21.6484C41.1901 21.513 41.0443 21.4089 40.8672 21.3359C40.6953 21.2578 40.4922 21.2188 40.2578 21.2188C40.1536 21.2188 40.0521 21.2266 39.9531 21.2422C39.8542 21.2526 39.7578 21.2708 39.6641 21.2969L39.5391 24.2031H39.7266C39.9505 24.2031 40.1771 24.1745 40.4062 24.1172C40.6406 24.0599 40.849 23.9714 41.0312 23.8516C41.2188 23.7318 41.3698 23.5781 41.4844 23.3906C41.6042 23.2031 41.6641 22.9792 41.6641 22.7188ZM54.5625 23.7969C54.5625 24.526 54.4688 25.1797 54.2812 25.7578C54.0938 26.3359 53.8307 26.849 53.4922 27.2969C53.1589 27.7396 52.7604 28.1172 52.2969 28.4297C51.8333 28.7422 51.3255 29 50.7734 29.2031C50.2214 29.401 49.6328 29.5469 49.0078 29.6406C48.388 29.7344 47.75 29.7812 47.0938 29.7812C46.849 29.7812 46.6094 29.776 46.375 29.7656C46.1406 29.75 45.901 29.7292 45.6562 29.7031L45.875 19.5312C46.4479 19.349 47.0365 19.2214 47.6406 19.1484C48.25 19.0703 48.8542 19.0312 49.4531 19.0312C50.1979 19.0312 50.8828 19.1354 51.5078 19.3438C52.1328 19.5521 52.6719 19.8594 53.125 20.2656C53.5781 20.6667 53.9297 21.1641 54.1797 21.7578C54.4349 22.3464 54.5625 23.026 54.5625 23.7969ZM49.25 26.7969C49.5625 26.75 49.8464 26.6562 50.1016 26.5156C50.362 26.3698 50.5859 26.1927 50.7734 25.9844C50.9609 25.7708 51.1042 25.5312 51.2031 25.2656C51.3073 24.9948 51.3594 24.7083 51.3594 24.4062C51.3594 24.1094 51.3281 23.8333 51.2656 23.5781C51.2031 23.3177 51.1016 23.0938 50.9609 22.9062C50.8203 22.7135 50.6354 22.5625 50.4062 22.4531C50.1771 22.3385 49.8958 22.276 49.5625 22.2656L49.25 26.7969ZM71.2812 16.8477C71.2812 17.7318 71.1491 18.5156 70.8848 19.1992C70.6204 19.8828 70.2559 20.4798 69.791 20.9902C69.3353 21.5007 68.7975 21.9336 68.1777 22.2891C67.5579 22.6445 66.8926 22.9362 66.1816 23.1641C65.4798 23.3828 64.7507 23.5469 63.9941 23.6562C63.2376 23.7565 62.4948 23.8112 61.7656 23.8203V30.1914H55.3945C55.3945 28.1042 55.3991 26.026 55.4082 23.957C55.4173 21.888 55.431 19.8008 55.4492 17.6953C55.4674 16.5833 55.472 15.4714 55.4629 14.3594C55.4538 13.2474 55.4766 12.1263 55.5312 10.9961C56.6979 10.6497 57.8646 10.39 59.0312 10.2168C60.1979 10.0436 61.401 9.95703 62.6406 9.95703C63.3424 9.95703 64.0443 10.0163 64.7461 10.1348C65.4479 10.2441 66.1178 10.4219 66.7559 10.668C67.403 10.9141 68 11.224 68.5469 11.5977C69.1029 11.9622 69.5814 12.3997 69.9824 12.9102C70.3835 13.4206 70.6979 14.0039 70.9258 14.6602C71.1628 15.3073 71.2812 16.0365 71.2812 16.8477ZM65.2109 17.3125C65.2109 16.7201 65.0286 16.2598 64.6641 15.9316C64.3086 15.5944 63.8438 15.4258 63.2695 15.4258C63.0781 15.4258 62.8776 15.444 62.668 15.4805C62.4674 15.5078 62.276 15.5443 62.0938 15.5898L61.9297 19.582C62.0573 19.6003 62.1803 19.6094 62.2988 19.6094C62.4173 19.6094 62.5404 19.6094 62.668 19.6094C62.9961 19.6094 63.3105 19.5547 63.6113 19.4453C63.9212 19.3359 64.1947 19.181 64.4316 18.9805C64.6686 18.7708 64.8555 18.5293 64.9922 18.2559C65.138 17.9733 65.2109 17.6589 65.2109 17.3125ZM84.0234 22.7539L83.4492 28.8242L71.9375 29.7266L72.375 10.2031H79.4844L78.4727 22.7539H84.0234ZM101.906 28.8242L95.125 29.6992L94.3047 26.6094H91.1875L90.5039 29.6992L83.5312 29.0156L88.9727 10.8047L96.5742 10.4219L101.906 28.8242ZM93.8125 22.4258L92.7734 17.668L91.7617 22.4258H93.8125ZM115.236 11.3242L114.744 17.0938C114.48 17.0208 114.22 16.9707 113.965 16.9434C113.71 16.916 113.45 16.9023 113.186 16.9023C112.538 16.9023 111.919 16.9844 111.326 17.1484C110.743 17.3125 110.223 17.5632 109.768 17.9004C109.321 18.2376 108.961 18.666 108.688 19.1855C108.423 19.696 108.291 20.3021 108.291 21.0039C108.291 21.5143 108.364 21.9609 108.51 22.3438C108.665 22.7174 108.879 23.0319 109.152 23.2871C109.435 23.5332 109.772 23.7201 110.164 23.8477C110.565 23.9753 111.007 24.0391 111.49 24.0391C111.827 24.0391 112.174 24.0072 112.529 23.9434C112.885 23.8704 113.24 23.7747 113.596 23.6562C113.951 23.5378 114.293 23.401 114.621 23.2461C114.949 23.0911 115.255 22.9271 115.537 22.7539L115.318 29.1797C114.963 29.362 114.58 29.526 114.17 29.6719C113.76 29.8086 113.336 29.9271 112.898 30.0273C112.47 30.1367 112.037 30.2188 111.6 30.2734C111.171 30.3281 110.761 30.3555 110.369 30.3555C109.075 30.3555 107.895 30.1139 106.828 29.6309C105.771 29.1478 104.859 28.4915 104.094 27.6621C103.337 26.8236 102.749 25.8529 102.33 24.75C101.911 23.6471 101.701 22.4714 101.701 21.2227C101.701 19.7279 101.911 18.3333 102.33 17.0391C102.758 15.7448 103.383 14.6237 104.203 13.6758C105.033 12.7188 106.053 11.9714 107.266 11.4336C108.487 10.8867 109.886 10.6133 111.463 10.6133C112.092 10.6133 112.73 10.6634 113.377 10.7637C114.024 10.8639 114.644 11.0508 115.236 11.3242ZM131.807 18.9531C131.807 19.7461 131.752 20.5391 131.643 21.332C130.084 21.4323 128.535 21.5964 126.994 21.8242C125.454 22.043 123.913 22.2617 122.373 22.4805C122.61 23.1367 122.979 23.6608 123.48 24.0527C123.991 24.4447 124.597 24.6406 125.299 24.6406C125.663 24.6406 126.06 24.5723 126.488 24.4355C126.926 24.2988 127.359 24.1302 127.787 23.9297C128.215 23.7201 128.626 23.4967 129.018 23.2598C129.41 23.0228 129.747 22.8086 130.029 22.6172L129.373 28.8242C129.018 29.0977 128.63 29.3301 128.211 29.5215C127.801 29.7129 127.372 29.8678 126.926 29.9863C126.479 30.1048 126.028 30.1914 125.572 30.2461C125.117 30.3008 124.67 30.3281 124.232 30.3281C123.33 30.3281 122.505 30.2051 121.758 29.959C121.01 29.7129 120.331 29.3711 119.721 28.9336C119.119 28.487 118.59 27.9629 118.135 27.3613C117.679 26.7598 117.301 26.1035 117 25.3926C116.699 24.6816 116.471 23.9297 116.316 23.1367C116.161 22.3438 116.084 21.5417 116.084 20.7305C116.084 19.8828 116.161 19.0352 116.316 18.1875C116.471 17.3398 116.704 16.5241 117.014 15.7402C117.333 14.9564 117.729 14.2318 118.203 13.5664C118.686 12.8919 119.247 12.304 119.885 11.8027C120.523 11.3014 121.243 10.9095 122.045 10.627C122.856 10.3444 123.749 10.2031 124.725 10.2031C125.536 10.2031 126.274 10.3171 126.939 10.5449C127.614 10.7637 128.211 11.0736 128.73 11.4746C129.259 11.8665 129.715 12.3359 130.098 12.8828C130.49 13.4297 130.809 14.0312 131.055 14.6875C131.31 15.3346 131.497 16.0228 131.615 16.752C131.743 17.472 131.807 18.2057 131.807 18.9531ZM126.338 18.2422C126.338 17.987 126.311 17.7272 126.256 17.4629C126.201 17.1895 126.11 16.9434 125.982 16.7246C125.864 16.5059 125.704 16.3281 125.504 16.1914C125.303 16.0456 125.053 15.9727 124.752 15.9727C124.387 15.9727 124.064 16.0729 123.781 16.2734C123.508 16.4648 123.271 16.7109 123.07 17.0117C122.87 17.3034 122.706 17.6224 122.578 17.9688C122.451 18.3151 122.355 18.6341 122.291 18.9258L126.338 18.543V18.2422Z" fill="#F0E2E2"/>
<path d="M110.721 13C106.388 13 104 16.0265 104 19.7368C103.972 25.1642 110.29 28.8181 110.588 29C110.588 29 118.028 25.16 118 19.7368C118 16.0223 115.055 13 110.721 13Z" fill="#5D1049"/>
<circle cx="111" cy="20" r="3" fill="#F0E2E2"/>
</svg>
